<svg enable-background="new 0 0 1000 997.5" viewBox="0 0 1000 997.5" xmlns="http://www.w3.org/2000/svg"><g transform="translate(-55.5 -1002.3452)"><path d="m55.5 1002.3h997.5v538.5l-49.4 77.1 49.4 68.7v313.2h-997.5v-507.6l30.9-35.5-30.9-33.9z" fill="#016fd0"/><path d="m249.1 1697.4v-156.6h165.9l17.8 23.2 18.4-23.2h601.8v145.8s-15.7 10.6-33.9 10.8h-333.3l-20.1-24.7v24.7h-65.7v-42.1s-9 5.9-28.4 5.9h-22.4v36.3h-99.5l-17.8-23.7-18 23.7h-164.8z" fill="#fff"/><path d="m55.5 1422.8 37.4-87.2h64.7l21.2 48.8v-48.8h80.4l12.6 35.3 12.2-35.3h360.9v17.7s19-17.7 50.1-17.7l117.1.4 20.9 48.2v-48.6h67.3l18.5 27.7v-27.7h67.9v156.6h-67.9l-17.7-27.8v27.8h-98.8l-9.9-24.7h-26.6l-9.8 24.7h-67c-26.8 0-44-17.4-44-17.4v17.4h-101.2l-20.1-24.7v24.7h-375.7l-9.9-24.7h-26.5l-9.9 24.7h-46.2z" fill="#fff"/><g fill="#016fd0"><path d="m106.1 1354.9-50.4 117.3h32.8l9.3-23.5h54.1l9.3 23.5h33.6l-50.4-117.3zm18.7 27.3 16.5 41h-33z"/><path d="m198.2 1472.2v-117.3l46.7.2 27.1 75.6 26.5-75.8h46.3v117.3h-29.3v-86.4l-31.1 86.4h-25.7l-31.2-86.4v86.4z"/><path d="m364.9 1472.2v-117.3h95.7v26.2h-66v20.1h64.4v24.7h-64.5v20.8h66v25.5z"/><path d="m477.5 1354.9v117.3h29.3v-41.7h12.3l35.2 41.7h35.8l-38.6-43.2c15.8-1.3 32.2-14.9 32.2-36 0-24.7-19.4-38-41-38zm29.3 26.3h33.5c8 0 13.9 6.3 13.9 12.3 0 7.8-7.6 12.3-13.5 12.3h-33.9z"/><path d="m625.6 1472.2h-29.9v-117.3h29.9z"/><path d="m696.6 1472.2h-6.5c-31.3 0-50.2-24.6-50.2-58.1 0-34.3 18.8-59.1 58.2-59.1h32.4v27.8h-33.5c-16 0-27.4 12.5-27.4 31.6 0 22.7 13 32.2 31.6 32.2h7.7z"/><path d="m760.4 1354.9-50.4 117.3h32.8l9.3-23.5h54.1l9.3 23.5h33.5l-50.4-117.3zm18.6 27.3 16.5 41h-33z"/><path d="m852.4 1472.2v-117.3h37.3l47.6 73.7v-73.7h29.3v117.3h-36.1l-48.8-75.6v75.6z"/><path d="m269.2 1677.4v-117.3h95.7v26.2h-66v20.1h64.5v24.7h-64.5v20.8h66v25.5z"/><path d="m737.9 1677.4v-117.3h95.7v26.2h-66v20.1h64.2v24.7h-64.2v20.8h66v25.5z"/><path d="m368.6 1677.4 46.6-57.9-47.7-59.4h36.9l28.4 36.7 28.5-36.7h35.5l-47.1 58.6 46.7 58.6h-36.9l-27.6-36.1-26.9 36.1z"/><path d="m499.9 1560.1v117.3h30.1v-37h30.9c26.1 0 45.9-13.9 45.9-40.8 0-22.3-15.5-39.4-42.1-39.4h-64.8zm30.1 26.6h32.5c8.4 0 14.5 5.2 14.5 13.5 0 7.8-6 13.5-14.6 13.5h-32.4z"/><path d="m619.4 1560.1v117.3h29.3v-41.7h12.3l35.2 41.7h35.8l-38.6-43.2c15.8-1.3 32.2-14.9 32.2-36 0-24.7-19.4-38-41-38zm29.4 26.3h33.5c8 0 13.9 6.3 13.9 12.3 0 7.8-7.6 12.3-13.5 12.3h-33.9z"/><path d="m847.2 1677.4v-25.5h58.7c8.7 0 12.4-4.7 12.4-9.8 0-4.9-3.7-9.9-12.4-9.9h-26.5c-23 0-35.9-14-35.9-35.1 0-18.8 11.8-36.9 46-36.9h57.1l-12.3 26.4h-49.4c-9.4 0-12.3 5-12.3 9.7 0 4.9 3.6 10.2 10.8 10.2h27.8c25.7 0 36.8 14.6 36.8 33.7 0 20.5-12.4 37.3-38.2 37.3h-62.6z"/><path d="m954.8 1677.4v-25.5h58.7c8.7 0 12.4-4.7 12.4-9.8 0-4.9-3.7-9.9-12.4-9.9h-26.5c-23 0-35.9-14-35.9-35.1 0-18.8 11.8-36.9 46-36.9h57.1l-12.3 26.4h-49.4c-9.4 0-12.3 5-12.3 9.7 0 4.9 3.6 10.2 10.8 10.2h27.8c25.7 0 36.8 14.6 36.8 33.7 0 20.5-12.4 37.3-38.2 37.3h-62.6z"/></g></g></svg>