<svg viewBox="0 0 107 50" xmlns="http://www.w3.org/2000/svg">
	<g fill="none" fill-rule="evenodd">
		<g fill="#000" fill-rule="nonzero" transform="">
			<path d="m28.036 20.536c.056 5.849 5.298 7.795 5.356 7.82-.045.137-.838 2.774-2.762 5.497-1.663 2.355-3.39 4.7-6.108 4.75-2.672.047-3.531-1.535-6.586-1.535-3.054 0-4.009 1.486-6.538 1.582-2.625.096-4.623-2.546-6.3-4.892-3.427-4.799-6.046-13.56-2.53-19.474 1.747-2.937 4.87-4.797 8.257-4.844 2.578-.048 5.01 1.68 6.586 1.68 1.575 0 4.531-2.078 7.64-1.773 1.3.053 4.952.51 7.297 3.834-.189.114-4.357 2.464-4.312 7.355m-5.022-14.363c1.394-1.634 2.332-3.909 2.076-6.173-2.009.078-4.437 1.297-5.878 2.93-1.291 1.446-2.422 3.76-2.117 5.978 2.239.168 4.526-1.102 5.92-2.736"/>
			<path d="m43.183 3.376c1.1344466-.18815577 2.2738827-.34488242 3.417-.47 1.3657864-.14505585 2.7385476-.21449514 4.112-.208 2.136 0 3.978.252 5.526.756 1.549.504 2.821 1.225 3.817 2.164.8623588.84492317 1.5438409 1.85642898 2.003 2.973.48 1.147.72 2.469.72 3.964 0 1.808-.33 3.39-.987 4.746-.6336819 1.3245615-1.5546876 2.4911916-2.696 3.415-1.14.921-2.492 1.608-4.058 2.06-1.567.452-3.275.678-5.126.678-1.673 0-3.079-.121-4.217-.364v15.02h-2.511zm2.51 17.523c.606.173 1.282.295 2.03.364.747.07 1.547.104 2.401.104 3.203 0 5.686-.73 7.448-2.19s2.643-3.598 2.643-6.414c0-1.356-.231-2.538-.694-3.547-.439239-.97880884-1.1185807-1.83082382-1.975-2.477-.854-.643-1.868-1.13-3.043-1.46-1.175-.331-2.474-.496-3.898-.496-.980257-.00751012-1.9602429.03588162-2.936.13-.82.087-1.478.183-1.975.287zm37.044 11.264c0 1.01.018 2.018.053 3.026.036 1.008.142 1.982.32 2.92h-2.35l-.372-3.545h-.108c-.32.487-.73.973-1.227 1.46-.5258665.5078784-1.1079645.9540976-1.735 1.33-.7019516.4187084-1.4561432.742846-2.243.964-.837.243-1.753.365-2.75.365-1.245 0-2.34-.2-3.284-.6-.943-.399-1.717-.92-2.322-1.564-.6014474-.6372306-1.0650937-1.391592-1.362-2.216-.2964522-.8017034-.4497819-1.6492474-.453-2.504 0-2.955 1.272-5.233 3.817-6.832 2.545-1.6 6.381-2.364 11.507-2.294v-.678c0-.662-.062-1.418-.187-2.27-.1250383-.8522495-.4057039-1.6742471-.828-2.425-.427-.764-1.068-1.408-1.922-1.93-.854-.52-2.011-.781-3.471-.781-1.103 0-2.197.165-3.283.495-1.085.33-2.073.79-2.963 1.381l-.801-1.825c1.139-.764 2.314-1.312 3.524-1.642 1.2355396-.3337173 2.5101935-.5005322 3.79-.496 1.78 0 3.231.296 4.352.887 1.121.59 2.002 1.355 2.643 2.294.6462061.951672 1.0912963 2.0252649 1.308 3.155.2293477 1.1417885.3455764 2.3034059.347 3.468zm-2.509-7.456c-1.4168448-.0326946-2.8343767.0193985-4.245.156-1.477.139-2.838.443-4.084.912-1.246.47-2.279 1.157-3.097 2.06-.819.905-1.228 2.104-1.228 3.6 0 1.773.516 3.076 1.548 3.91 1.032.835 2.189 1.253 3.47 1.253 1.033 0 1.958-.14 2.776-.418.7693707-.2523167 1.4912737-.6311806 2.136-1.121.5858455-.4488397 1.099179-.9851079 1.522-1.59.41-.591.72-1.2.935-1.826.178-.696.267-1.2.267-1.514zm7.418-11.632 6.513 16.273c.3624451.9210504.7008927 1.8513644 1.015 2.79.32.956.605 1.834.854 2.634h.107c.249-.765.534-1.625.854-2.582.32-.956.676-1.938 1.067-2.947l6.088-16.168h2.669l-7.42 18.36c-.6793874 1.7737852-1.3827854 3.5382806-2.11 5.293-.5993874 1.456495-1.2674703 2.883763-2.002 4.277-.6121999 1.1644248-1.2989625 2.2880966-2.056 3.364-.6668206.9435512-1.4469933 1.8016404-2.323 2.555-.997.87-1.913 1.504-2.75 1.904-.836.4-1.396.652-1.68.756l-.856-2.034c.7319617-.3246746 1.4450874-.6902516 2.136-1.095.783-.452 1.548-1.043 2.296-1.773.64-.626 1.344-1.452 2.109-2.478.765-1.025 1.45-2.269 2.056-3.73.214-.556.32-.92.32-1.095 0-.243-.106-.608-.32-1.095l-9.238-23.209z"/>
		</g>
		<path d="m-15-13h136v70h-136z" fill="none"/>
	</g>
</svg>