<svg enable-background="new 0 0 481.2 318.1" viewBox="0 0 481.2 318.1" xmlns="http://www.w3.org/2000/svg" xmlns:xlink="http://www.w3.org/1999/xlink">
	<clipPath id="a">
		<path d="m0 0h481.2v318.1h-481.2z"/>
	</clipPath>
	<clipPath id="b">
		<path d="m0 0h481.2v318.1h-481.2z"/>
	</clipPath>
	<g clip-path="url(#a)">
		<path clip-path="url(#b)" d="m145 17c-78.4 0-142.1 63.7-142.1 142.1 0 78.3 63.7 142.1 142.1 142.1h191.3c78.3 0 142.1-63.7 142.1-142.1s-63.8-142.1-142.1-142.1z" fill="#fff"/>
		<path clip-path="url(#b)" d="m336.3 304h-191.3c-79.9 0-145-65-145-145 0-79.9 65-144.9 145-144.9h191.3c79.9 0 144.9 65 144.9 144.9.1 80-65 145-144.9 145m-191.3-287c-78.4 0-142.1 63.7-142.1 142.1 0 78.3 63.7 142.1 142.1 142.1h191.3c78.3 0 142.1-63.7 142.1-142.1s-63.8-142.1-142.1-142.1z" fill="#fff"/>
		<g fill="#dc0d19">
			<path clip-path="url(#b)" d="m369.8 150.4 63.6 75.7c13.2-19 20.9-42.1 20.9-67 0-26.2-8.6-50.5-23.2-70.1z"/>
			<path clip-path="url(#b)" d="m189.5 82.5c47.5 0 83.3 12.1 87 52.1l50-52.1h99.5c-21.7-25.4-53.8-41.5-89.7-41.5h-191.3c-35.9 0-68.1 16.1-89.7 41.5z"/>
			<path clip-path="url(#b)" d="m111.2 133-17 46.6h68.5c20.2 0 26.4-8.4 30.9-24.5 4.5-16-6.8-22.1-20.6-22.1z"/>
			<path clip-path="url(#b)" d="m326.9 232.4-52.9-66.8c-9.8 45.6-41.8 66.8-101.8 66.8h-119.6c21.6 27.2 55 44.6 92.4 44.6h191.3c37.4 0 70.7-17.5 92.3-44.6z"/>
		</g>
	</g>
</svg>