<svg enable-background="new 0 0 636.2 504" viewBox="0 0 636.2 504" xmlns="http://www.w3.org/2000/svg"><path d="m372.7 504c137.8.7 263.5-112.3 263.5-249.8 0-150.3-125.8-254.2-263.5-254.2h-118.6c-139.4 0-254.1 103.9-254.1 254.2 0 137.5 114.7 250.5 254.1 249.8z" fill="#0079be"/><path d="m254.7 20.8c-127.4 0-230.6 103.3-230.6 230.7s103.2 230.6 230.6 230.7c127.4 0 230.7-103.3 230.7-230.7s-103.3-230.6-230.7-230.7zm-146.2 230.8c.1-62.3 39-115.4 93.8-136.5v272.9c-54.8-21.1-93.7-74.2-93.8-136.4zm198.5 136.5v-273c54.9 21.1 93.8 74.2 93.9 136.5-.1 62.3-39 115.4-93.9 136.5z" fill="#fff"/><path d="m372.7 504c137.8.7 263.5-112.3 263.5-249.8 0-150.3-125.8-254.2-263.5-254.2h-118.6c-139.4 0-254.1 103.9-254.1 254.2 0 137.5 114.7 250.5 254.1 249.8z" fill="#0079be"/><path d="m254.7 20.8c-127.4 0-230.6 103.3-230.6 230.7s103.2 230.6 230.6 230.7c127.4 0 230.7-103.3 230.7-230.7s-103.3-230.6-230.7-230.7zm-146.2 230.8c.1-62.3 39-115.4 93.8-136.5v272.9c-54.8-21.1-93.7-74.2-93.8-136.4zm198.5 136.5v-273c54.9 21.1 93.8 74.2 93.9 136.5-.1 62.3-39 115.4-93.9 136.5z" fill="#fff"/></svg>