<svg viewBox="0 0 41 17" xmlns="http://www.w3.org/2000/svg">
	<g fill="none" fill-rule="evenodd" transform="">
		<g fill="#5f6368" transform="translate(17.876543 1.08718)">
			<path d="m1.64941186 1.54761702v4.08305474h2.51799284c.59981129 0 1.09582346-.20158625 1.48822337-.60475874.40267704-.40223922.60448271-.88193982.60448271-1.43723527 0-.5440962-.20180567-1.01819719-.60448271-1.42136968-.39239991-.41343845-.88841208-.62062432-1.48822337-.62062432h-2.51799284zm0 5.52029v4.73634348h-1.50419965v-11.69386874h3.98939907c1.01379319 0 1.87427013.33784361 2.58329939 1.01259757.71949327.67475396 1.07909975 1.49696452 1.07909975 2.46569842 0 .99113238-.35969991 1.81894256-1.07909975 2.48249728-.69791126.66448799-1.55932249.99579872-2.58329939.99579872h-2.48519942z"/><path d="m9.31707424 9.35440834c0 .39197325.16630282.71861766.49900188.97993316.33251218.2613155.72210928.3919732 1.16879118.3919732.6324178 0 1.195792-.234344 1.6918976-.7018187.496199-.46850142.7436912-1.01819724.7436912-1.64908753-.4690113-.37050805-1.1230111-.55529544-1.9619995-.55529544-.6109293 0-1.1201149.1474566-1.52839765.44143655-.40837619.29388661-.61298471.65702183-.61298471 1.09285876m1.94611666-5.81426994c1.1117998 0 1.9890939.29677975 2.63291.89033925.6427884.5935595.9640892 1.40737064.9640892 2.44143341v4.93233014h-1.4387062v-1.1105909h-.0654935c-.6212998.9145109-1.450011 1.3719064-2.485106 1.3719064-.88289974 0-1.62191957-.2613155-2.21528429-.7839465-.59411215-.522631-.89121494-1.1759198-.89121494-1.9598663 0-.82781018.31289222-1.48585861.93979778-1.97573185.62690557-.48996657 1.46318455-.73541649 2.50958425-.73541649.8930835 0 1.6293005.16332219 2.2066889.48996657v-.34344324c0-.522631-.2074113-.96593409-.6212064-1.33084252-.4149162-.36490844-.8988761-.54689602-1.4547759-.54689602-.8399227 0-1.50410625.3537092-1.99460614 1.06206087l-1.32491026-.8334098c.73061126-1.04526201 1.80971101-1.56789302 3.2382335-1.56789302"/><path d="m8.03156658.04200647-5.01982254 11.53054653h-1.55287592l1.86399299-4.03452468-3.30279266-7.49602185h1.63499962l2.38709944 5.74894106h.0327l2.32169946-5.74894106z" transform="translate(15.084923 3.759447)"/></g><g transform="translate(.261474 .261474)"><path d="m13.1865148 6.87260706c0-.47316771-.0401742-.92953658-.1158514-1.36630677h-6.34379848v2.58795675h3.63343628c-.1560257.84358244-.62783984 1.56136013-1.34350253 2.04199396v1.6808187h2.16847663c1.269694-1.1703202 2.0012395-2.89966883 2.0012395-4.94446264" fill="#4285f4"/><path d="m6.72685557 13.439083c1.81531672 0 3.34380783-.595426 4.45841043-1.6220227l-2.16847667-1.6808186c-.60354843.4059723-1.38087397.6430228-2.28993376.6430228-1.75458816 0-3.24383924-1.18151939-3.77638197-2.77367741h-2.23387662v1.7312152c1.10712831 2.19505021 3.38211349 3.70228071 6.01025859 3.70228071" fill="#34a853"/><path d="m2.95048294 8.00556842c-.13640568-.4059723-.21114852-.83900942-.21114852-1.28604558 0-.44703617.07474284-.88007328.21114852-1.28604558v-1.73121521h-2.23387662c-.45779989.9071381-.71659698 1.93186818-.71659698 3.01726079 0 1.0853926.25879709 2.11021601.71659698 3.01726079z" fill="#fabb05"/><path d="m6.72685557 2.65981851c.99127692 0 1.87978242.34064343 2.58049655 1.00793123v.00093327l1.91995668-1.91786914c-1.1659883-1.08445934-2.68607079-1.75081387-4.50045323-1.75081387-2.6281451 0-4.90313028 1.50723049-6.01025859 3.70228071l2.23387662 1.73121521c.53254273-1.59215803 2.02179381-2.77367741 3.77638197-2.77367741" fill="#e94235"/>
		</g>
		<path d="m0 0h41.2853186v18h-41.2853186z"/>
	</g>
</svg>