<svg viewBox="0 0 116.4947 72.004158" xmlns="http://www.w3.org/2000/svg"><path d="m-15.145293-15.130839h146.78v120.64h-146.78z" fill="none"/><g transform="translate(-15.145293 -15.130839)"><path d="m57.639999 22.83h31.5v56.610001h-31.5z" fill="#7673c0"/><g transform="translate(-322.61 -245.68)"><path d="m382.25 296.82a35.94 35.94 0 0 1 13.75-28.31 36 36 0 1 0 0 56.61 35.94 35.94 0 0 1 -13.75-28.3z" fill="#eb001b"/><path d="m450.81 319.12v-1.12h.47v-.24h-1.19v.24h.47v1.16zm2.31 0v-1.4h-.36l-.42 1-.42-1h-.37v1.4h.26v-1.05l.39.91h.27l.39-.91v1.06z" fill="#00a1df"/><path d="m454.24 296.82a36 36 0 0 1 -58.24 28.3 36 36 0 0 0 0-56.61 36 36 0 0 1 58.25 28.3z" fill="#00a1df"/></g></g></svg>