<svg viewBox="0 0 100 57" xmlns="http://www.w3.org/2000/svg" xmlns:xlink="http://www.w3.org/1999/xlink"><clipPath id="a"><path d="m3.56 12.14h92.88v32.72h-92.88z"/></clipPath><clipPath id="b"><path d="m34.3 12.14h61.01v29.28h-61.01z"/></clipPath><path d="m0 0h100v57h-100z" fill="#fff"/><g clip-path="url(#a)" fill="#003c5c"><path d="m42.51 25.21-3.15 7.01-3.14-7.01h-1.92v8.19h1.04v-7.5h.14l3.38 7.5h1.03l3.35-7.5h.15v7.5h1.05v-8.19z"/><g clip-path="url(#b)"><path d="m48.85 33.48c-2.33 0-2.87-.59-2.87-2.93s.62-2.94 2.87-2.94 2.86.64 2.86 2.94-.53 2.93-2.86 2.93m0-5.17c-1.59 0-1.86.25-1.86 2.24s.2 2.23 1.86 2.23 1.85-.32 1.85-2.23-.11-2.24-1.85-2.24"/><path d="m58.13 32.86a3.44 3.44 0 0 1 -2.34.63 11.78 11.78 0 0 1 -1.79-.14 4.79 4.79 0 0 1 -.8-.16v-8h1v3.08a1.37 1.37 0 0 1 .37-.35 3 3 0 0 1 1.54-.33 2.53 2.53 0 0 1 2.22.83 1.92 1.92 0 0 1 .37.86 5.15 5.15 0 0 1 .11 1.22c0 1.26-.17 1.91-.65 2.34m-2.16-4.44a3.17 3.17 0 0 0 -1.42.25c-.3.16-.37.38-.37 1.13v2.91a11.08 11.08 0 0 0 1.39.1 3.6 3.6 0 0 0 1.32-.21c.67-.26.89-.74.89-2 0-1.66-.41-2.13-1.81-2.13"/><path d="m60.87 33.4v-5h-1.36v-.72h2.34v5.72h-1zm0-8.19h1v1h-1z"/><path d="m64.18 33.4v-7.5h-1.37v-.69h2.34v8.19z"/><path d="m71.53 33.21a6 6 0 0 1 -2 .27 3.65 3.65 0 0 1 -1.95-.39c-.62-.38-.91-1.16-.91-2.43a4.68 4.68 0 0 1 .33-1.91c.34-.78 1.18-1.13 2.57-1.13a2.9 2.9 0 0 1 2.25.7 2.67 2.67 0 0 1 .47 1.88v.53h-4.63v.27a2.16 2.16 0 0 0 .34 1.33 2 2 0 0 0 1.5.43 2.74 2.74 0 0 0 1.58-.27 1.41 1.41 0 0 0 .21-.79h1a6.18 6.18 0 0 1 0 .67.93.93 0 0 1 -.74.84m-.32-4.1c-.17-.54-.67-.79-1.63-.79a2.38 2.38 0 0 0 -1.45.33 1.74 1.74 0 0 0 -.46 1.35h3.63a2.73 2.73 0 0 0 -.11-.92"/><path d="m78.16 30.47h-3.3v2.93h-1v-8.19h4.32a2.33 2.33 0 0 1 2.59 2.48 2.46 2.46 0 0 1 -2.56 2.78m-.53-4.47h-2.82v3.62h2.53c1.52 0 2.29-.11 2.29-1.84 0-1.36-.69-1.79-2-1.79"/><path d="m86.36 33.4-.11-.54a2.58 2.58 0 0 1 -2.07.63c-1.9 0-2.59-.46-2.59-1.79a2 2 0 0 1 .26-1.1 1.94 1.94 0 0 1 1.81-.6h2.54v-.69a.8.8 0 0 0 -.25-.75 4.29 4.29 0 0 0 -2.88.06 1 1 0 0 0 -.18.62h-.96c0-.21 0-.55 0-.55a.66.66 0 0 1 .18-.54 4.24 4.24 0 0 1 2.24-.52 4.38 4.38 0 0 1 2.43.48c.43.38.41.84.41 2.07v3.22zm-.16-2.77h-1.88a2.86 2.86 0 0 0 -1.33.15 1 1 0 0 0 -.36 1 .83.83 0 0 0 .26.75 2.37 2.37 0 0 0 1.36.27 3.76 3.76 0 0 0 1.39-.17 1.1 1.1 0 0 0 .55-1.19v-.81z"/><path d="m91.73 34.4c-.1.31-.22.63-.28.76a1.2 1.2 0 0 1 -.33.47 1.4 1.4 0 0 1 -.94.23 6.3 6.3 0 0 1 -.85 0v-.79h.28a1.48 1.48 0 0 0 .86-.07 1.81 1.81 0 0 0 .46-1l.21-.64h-.93l-2-5.73h1l1.68 5.1h.48l1.63-5.05h1z"/><path d="m57.87 40.4h-1.94v-3.4h1.87a.8.8 0 0 1 1 .9.71.71 0 0 1 -.61.7v.05a.76.76 0 0 1 .72.81.88.88 0 0 1 -1 .95m-.28-3.07h-1.27v1.15h1.18c.52 0 .8-.1.8-.64s-.28-.51-.74-.51m.11 1.49h-1.35v1.24h1.28c.47 0 .81 0 .81-.57a.6.6 0 0 0 -.74-.67"/><path d="m60.72 40.82c0 .13-.09.26-.12.32a.5.5 0 0 1 -.14.2.58.58 0 0 1 -.39.1h-.35v-.34h.12a.62.62 0 0 0 .36 0 .75.75 0 0 0 .19-.38l.09-.27h-.4l-.84-2.45h.42l.7 2.12h.2l.68-2.12h.41l-.93 2.8"/><path d="m64.79 40.4h-1.67v-3.4h1.53a1.36 1.36 0 0 1 1.66 1.49v.46a1.32 1.32 0 0 1 -1.52 1.46m1.09-2a1 1 0 0 0 -1.15-1.08h-1.17v2.73h1.21a1 1 0 0 0 1.11-1.06z"/><path d="m68.8 40.4v-.23a1.07 1.07 0 0 1 -.86.26c-.79 0-1.08-.19-1.08-.74a.83.83 0 0 1 .11-.46.81.81 0 0 1 .71-.23h1.06v-.3a.33.33 0 0 0 -.1-.31 1.79 1.79 0 0 0 -1.2 0 .42.42 0 0 0 -.08.26h-.36c0-.09 0-.23 0-.23a.27.27 0 0 1 0-.21 1.76 1.76 0 0 1 1-.21 1.82 1.82 0 0 1 1 .2 1 1 0 0 1 .17.86v1.34zm-.07-1.15h-.73a1.19 1.19 0 0 0 -.55.06.42.42 0 0 0 -.15.4.34.34 0 0 0 .11.31 1 1 0 0 0 .56.11 1.57 1.57 0 0 0 .58-.07.46.46 0 0 0 .23-.5v-.31z"/><path d="m71.71 40.4v-1.3a.81.81 0 0 0 -.12-.67.89.89 0 0 0 -.59-.13 2.81 2.81 0 0 0 -.47 0l-.29.07v2h-.38v-2.37h.36v.19a1.16 1.16 0 0 1 .28-.15 1.83 1.83 0 0 1 .62-.04 1.46 1.46 0 0 1 .68.14.55.55 0 0 1 .28.41 2.78 2.78 0 0 1 0 .51v1.34z"/><path d="m74.79 40.26a2.1 2.1 0 0 1 -1 .17 2.85 2.85 0 0 1 -.79-.08.36.36 0 0 1 -.27-.35c0-.11 0-.21 0-.31h.39a.64.64 0 0 0 .08.35 1.07 1.07 0 0 0 .62.11 1.46 1.46 0 0 0 .65-.15.32.32 0 0 0 .15-.33.26.26 0 0 0 -.23-.33h-.16-.56a2.47 2.47 0 0 1 -.49-.06.52.52 0 0 1 -.43-.58c0-.53.28-.72 1.08-.72a5.1 5.1 0 0 1 .61 0 1.05 1.05 0 0 1 .4.12.37.37 0 0 1 .13.35v.16h-.4v-.09a.33.33 0 0 0 -.08-.21 1.14 1.14 0 0 0 -.55-.09 1.45 1.45 0 0 0 -.57.07.3.3 0 0 0 -.18.33.32.32 0 0 0 .1.27 1.5 1.5 0 0 0 .64.08h.33a1.41 1.41 0 0 1 .5.08.53.53 0 0 1 .31.6.57.57 0 0 1 -.26.55"/><path d="m77.36 40.4-1.09-1.14h-.2v1.14h-.41v-3.41h.41v1.98h.2l.92-.95h.46l-1.05 1.05 1.29 1.33z"/><path d="m80.22 40.32a2.49 2.49 0 0 1 -.85.11 1.52 1.52 0 0 1 -.81-.16 1.09 1.09 0 0 1 -.38-1 2 2 0 0 1 .13-.8 1 1 0 0 1 1.08-.47 1.21 1.21 0 0 1 .94.29 1.11 1.11 0 0 1 .19.79v.22h-1.91v.09a.9.9 0 0 0 .13.57.82.82 0 0 0 .63.18 1.14 1.14 0 0 0 .63-.14.58.58 0 0 0 .09-.33h.41a2.64 2.64 0 0 1 0 .28.39.39 0 0 1 -.31.35m-.13-1.71a.59.59 0 0 0 -.68-.33 1 1 0 0 0 -.61.14.72.72 0 0 0 -.18.57h1.51a1.14 1.14 0 0 0 0-.38"/><path d="m84.14 40.4h-1.94v-3.4h1.87a.8.8 0 0 1 1 .9.71.71 0 0 1 -.61.7v.05a.76.76 0 0 1 .72.81.88.88 0 0 1 -1 .95m-.28-3.07h-1.27v1.15h1.18c.52 0 .8-.1.8-.64s-.28-.51-.74-.51m.13 1.48h-1.37v1.24h1.28c.47 0 .81 0 .81-.57a.6.6 0 0 0 -.72-.67"/><path d="m87.64 40.4v-.23a1.07 1.07 0 0 1 -.86.26c-.79 0-1.08-.19-1.08-.74a.83.83 0 0 1 .11-.46.81.81 0 0 1 .71-.23h1.06v-.3a.33.33 0 0 0 -.1-.31 1.79 1.79 0 0 0 -1.2 0 .42.42 0 0 0 -.08.26h-.4c0-.09 0-.23 0-.23a.27.27 0 0 1 .08-.23 1.77 1.77 0 0 1 .92-.19 1.82 1.82 0 0 1 1 .2 1 1 0 0 1 .17.86v1.34zm-.07-1.15h-.77a1.19 1.19 0 0 0 -.55.06.42.42 0 0 0 -.15.4.34.34 0 0 0 .11.31 1 1 0 0 0 .56.11 1.57 1.57 0 0 0 .58-.07.46.46 0 0 0 .23-.5v-.31z"/><path d="m90.55 40.4v-1.3a.81.81 0 0 0 -.12-.67.89.89 0 0 0 -.56-.13 2.8 2.8 0 0 0 -.47 0l-.29.07v2h-.41v-2.37h.36v.19a1.16 1.16 0 0 1 .28-.15 1.83 1.83 0 0 1 .66-.04 1.46 1.46 0 0 1 .68.14.55.55 0 0 1 .28.41 2.78 2.78 0 0 1 .04.45v1.4z"/><path d="m93.37 40.4-1.1-1.14h-.2v1.14h-.4v-3.41h.4v1.98h.2l.92-.95h.46l-1.04 1.05 1.29 1.33z"/><path d="m95.1 38a.71.71 0 0 1 -.52.22.72.72 0 0 1 -.58-.22.74.74 0 1 1 1 0m0-1a.66.66 0 1 0 .19.47.64.64 0 0 0 -.19-.47m0 .92h-.17l-.31-.33h-.17v.33h-.11v-.82h.31a.6.6 0 0 1 .24 0 .21.21 0 0 1 .11.21.28.28 0 0 1 0 .16.26.26 0 0 1 -.22.09zm-.23-.71a.41.41 0 0 0 -.17 0h-.25v.29h.13.24a.13.13 0 0 0 .07-.13.14.14 0 0 0 -.07-.14"/></g><g clip-path="url(#a)"><path d="m31 25.44a.59.59 0 0 0 -.4-.5h-1-.12-6.13c-1.14.06-2.2.17-3.13.31a28.31 28.31 0 0 0 -3.89.82.53.53 0 0 0 -.35.51l.41 7.49v.06h.23a29.4 29.4 0 0 1 6.45-1.14l1.17 3-4.24 1.62-5.21 2-7.23-18.73 9.65-3.7 1.47 3.82-.34.19a31.59 31.59 0 0 0 -5.76 4.17.53.53 0 0 0 -.09.61l2.87 5-.25-4.66a1.4 1.4 0 0 1 1-1.38c.06 0 .66-.2 1.67-.42a2.75 2.75 0 0 1 1.45-2.23h.05a2.76 2.76 0 0 1 1.24-.3 2.74 2.74 0 0 1 2.45 1.51 2.65 2.65 0 0 1 .14.32h.19c.92 0 1.8-.07 2.63-.07 1.08 0 2 0 2.66.09l-3.07-5.32a.59.59 0 0 0 -.58-.27 20.17 20.17 0 0 0 -4.5 1.85l-2.08-5.45a1.93 1.93 0 0 0 -2.48-1.11l-9.78 3.71a1.93 1.93 0 0 0 -1.1 2.49l8.59 22.45a1.93 1.93 0 0 0 2.49 1.11l9.77-3.74a1.93 1.93 0 0 0 1.11-2.48l-1.67-4.29h3.39.2.19.35.16.3.26.11.2l.24.05h.12.05.07.06.05.17a.37.37 0 0 0 0-.06zm-8.33 13.71-3.74 1.43a.4.4 0 0 1 -.29-.75l3.74-1.43a.4.4 0 0 1 .29.75m1-7.67a2.75 2.75 0 1 1 2.75-2.75 2.74 2.74 0 0 1 -2.75 2.75"/><path d="m23.69 30.74a2 2 0 1 0 -2-2 2 2 0 0 0 2 2"/><path d="m18.51 24.35c.42-.08.88-.16 1.39-.24.73-.11 1.53-.21 2.4-.28a2 2 0 0 0 -2.7-.89l-.14.06a2 2 0 0 0 -1 1.37"/></g></g></svg>