<svg enable-background="new 0 0 180.2 81.8" viewBox="0 0 180.2 81.8" xmlns="http://www.w3.org/2000/svg"><g fill="#164193"><path d="m41.2 81.8v-41.5h6.7v3.1c.9-1.5 2.7-2.5 4.1-3s2.9-.7 4.4-.7c3.7 0 7.6 1.2 10.9 4.6 3 3.1 4.5 6.8 4.5 11.3 0 2-.4 4-1.2 6-.8 1.9-1.8 3.6-3.2 5.1-1.5 1.5-3.1 2.7-4.9 3.5s-3.5 1.2-5.8 1.2c-1.6 0-3.2-.2-4.7-.8-1.5-.5-3.5-1.6-4.2-2.9v14.4h-6.6m14.9-36.6c-2.4 0-4.6.8-6.3 2.5-1.8 1.9-2.5 4.5-2.5 7.2 0 2.8.7 5.6 2.4 7.4 1.8 1.9 3.9 2.5 6.4 2.5s4.6-1 6.2-2.6c1.8-1.8 2.7-4.3 2.7-7 0-2.9-.9-5.5-2.6-7.4-1.5-1.6-3.6-2.6-6.3-2.6"/><path d="m117.6 81.8 5.7-13.1-13-28.4h7.1l9.2 21.3 8.5-21.3h7.1l-17.7 41.5z"/><path d="m99.7 70.5v-3.1c-.7 1.3-2.8 2.5-4.2 2.9-1.5.5-3.1.8-4.7.8-2.2 0-3.9-.4-5.8-1.2-1.8-.8-3.5-1.9-4.9-3.5-1.4-1.4-2.5-3.1-3.2-5-.8-1.9-1.2-3.9-1.2-6 0-4.4 1.6-8.2 4.5-11.3 3.2-3.3 7.2-4.6 10.9-4.6 1.5 0 3 .2 4.4.7s3.2 1.5 4.1 3v-3.1h6.7v30.3h-6.6m-14.7-22.3c-1.8 1.9-2.6 4.5-2.6 7.4 0 2.7.9 5.2 2.7 7 1.6 1.6 3.6 2.6 6.2 2.6 2.5 0 4.7-.7 6.4-2.5 1.8-1.9 2.4-4.6 2.4-7.4 0-2.6-.7-5.3-2.5-7.2-1.8-1.8-3.9-2.5-6.3-2.5-2.6 0-4.8 1-6.3 2.6"/><path d="m149.2 21-.4-20.2h6.4v25.5h-9.2l-6.3-20.9h-.2l.4 20.9h-6.4v-25.5h9.6l5.9 20.2z"/><path d="m33.3 3.2-3.5 23.4h-7l4.8-25.8h11.4l4.8 25.8h-6.9l-3.5-23.4z"/><path d="m63.3 20.5 3.2-19.7h10.5l.6 25.8h-6.5l-.2-23.2h-.1l-4.3 23.2h-6.5l-4.3-23.2h-.2l-.1 23.2h-6.5l.6-25.8h10.5l3.2 19.7z"/><path d="m117.3 22.7c1.8 0 2.3-1.2 2.5-1.8.1-.3.1-.7.1-1v-19h6.5v18.5c0 .5-.1 1.4-.1 1.7-.4 4.8-4.3 6.4-9 6.4s-8.5-1.5-9-6.4c0-.3-.1-1.2-.1-1.7v-18.6h6.5v19c0 .3 0 .7.1 1 .2.7.7 1.9 2.5 1.9"/><path d="m12 19.3c.2.6.2 1.4.1 1.9-.2.9-.8 1.7-2.5 1.7-1.6 0-2.6-.9-2.6-2.3v-2.5h-7v2c0 5.8 4.5 7.5 9.3 7.5 4.7 0 8.5-1.6 9.1-5.9.3-2.2.1-3.7 0-4.2-1.1-5.4-10.9-7-11.6-10-.1-.5-.1-1.1 0-1.4.2-.8.8-1.7 2.4-1.7 1.5 0 2.4.9 2.4 2.3v1.6h6.4v-1.8c0-5.6-5-6.5-8.7-6.5-4.6 0-8.3 1.5-9 5.7-.2 1.2-.2 2.2 0 3.5 1.2 5.3 10.3 6.8 11.7 10.1"/><path d="m95.7 19.3c.3.6.1 1.4.1 1.9-.2.8-.8 1.7-2.5 1.7-1.6 0-2.6-.9-2.6-2.3v-2.5h-6.8v2c0 5.7 4.5 7.4 9.3 7.4 4.6 0 8.4-1.6 9-5.8.3-2.2.1-3.6 0-4.2-1.1-5.3-10.7-6.9-11.5-9.9-.1-.5-.1-1 0-1.3.2-.8.7-1.7 2.3-1.7 1.5 0 2.4.9 2.4 2.3v1.6h6.4v-1.9c0-5.5-5-6.4-8.6-6.4-4.5 0-8.3 1.5-8.9 5.7-.2 1.1-.2 2.1 0 3.4 1 5.2 10.1 6.7 11.4 10"/><path d="m171 22.4c1.9 0 2.5-1.2 2.6-1.9 0-.3.1-.7.1-1v-3.7h-2.6v-3.8h9.1v7c0 .5 0 .8-.1 1.7-.4 4.7-4.5 6.4-9.1 6.4s-8.6-1.7-9-6.4c-.1-.9-.1-1.2-.1-1.7v-10.8c0-.5.1-1.3.1-1.7.6-4.8 4.5-6.4 9-6.4 4.6 0 8.6 1.5 9 6.4.1.8 0 1.7 0 1.7v.8h-6.5v-1.4s0-.6-.1-1c.1-.6-.4-1.9-2.4-1.9-1.8 0-2.4 1.2-2.6 1.9-.1.3-.1.8-.1 1.2v11.8 1c.2.7.9 1.8 2.7 1.8"/></g></svg>