<svg viewBox="0 0 81 27" xmlns="http://www.w3.org/2000/svg">
	<g fill="none" fill-rule="evenodd">
		<path d="m-12-22h110v70h-110z" fill="none"/>
		<path d="m39.9238261 26.5122639-5.3585565-25.7394064h-6.4812923l5.3590433 25.7394064zm27.2669994-16.62068832 3.4120265 9.66647142 1.9625969-9.66647142zm7.2344894-9.11871808h5.9929558l-5.2358637 25.7394064h-5.5284762c-1.2459154 0-2.2956199-.7423434-2.7605865-1.8868728l-9.7253466-23.8525336h6.8065255l1.3515675 3.84377803h8.3138934zm-16.9199122 8.40338719c.0287257 6.79264211-9.139148 7.16931631-9.0782885 10.20422021.0199619.9224267.8758897 1.9048811 2.7479277 2.1559973.9284724.1230569 3.4889529.2221027 6.392194-1.1520329l1.1353947 5.4605259c-1.5594636.5792679-3.5658793 1.1375262-6.0620922 1.1375262-6.4072872 0-10.9147845-3.4966175-10.9508133-8.5079356-.0408976-3.7057141 3.2197105-5.7716698 5.6711308-7.0057406 2.5278598-1.2615836 3.3750239-2.070958 3.362852-3.19797933-.0175275-1.72679878-2.0161532-2.49115235-3.8760193-2.52016577-3.2610949-.05202406-5.1501735.90541883-6.6565676 1.6267525l-1.1762923-5.64261013c1.5166185-.71332996 4.3112864-1.33411712 7.2052769-1.36613193 6.8113942 0 11.2653352 3.4560987 11.2852971 8.80757415zm-26.8424436 17.33601921-10.5014269-25.7394064h-6.8503443l-5.16818801 20.5420022c-.31306122 1.2630843-.58619862 1.727299-1.53901481 2.2610459-1.55848984.8699024-4.13162912 1.6832786-6.39365468 2.1895128l.15287904.7468455h11.02871356c1.404637 0 2.6685669-.9604443 2.989905-2.6227132l2.7299134-14.89589047 6.7422578 17.51860367z" fill="#1a1f71" fill-rule="nonzero" transform="matrix(1 0 0 -1 .054676 27.249434)"/>
	</g>
</svg>